<svg width="52" height="90" viewBox="0 0 52 90" fill="none" xmlns="http://www.w3.org/2000/svg">
<path d="M2.4754 4.95077C1.10531 4.95077 0 3.83398 0 2.4754C0 1.10531 1.11682 0 2.4754 0C3.83398 0 4.95073 1.11682 4.95073 2.4754C4.95073 3.84549 3.84549 4.95077 2.4754 4.95077Z" fill="#71EBC6"/>
<path d="M2.4754 26.2159C1.10531 26.2159 0 25.0991 0 23.7405C0 22.3704 1.11682 21.2651 2.4754 21.2651C3.83398 21.2651 4.95073 22.3819 4.95073 23.7405C4.95073 25.0991 3.84549 26.2159 2.4754 26.2159Z" fill="#71EBC6"/>
<path d="M25.79 26.2159C24.4199 26.2159 23.3146 25.0991 23.3146 23.7405C23.3146 22.3704 24.4314 21.2651 25.79 21.2651C27.1601 21.2651 28.2653 22.3819 28.2653 23.7405C28.2768 25.0991 27.1601 26.2159 25.79 26.2159Z" fill="#71EBC6"/>
<path d="M2.4754 47.481C1.10531 47.481 0 46.3642 0 45.0056C0 43.6355 1.11682 42.5303 2.4754 42.5303C3.83398 42.5303 4.95073 43.6471 4.95073 45.0056C4.95073 46.3642 3.84549 47.481 2.4754 47.481Z" fill="#71EBC6"/>
<path d="M25.79 47.481C24.4199 47.481 23.3146 46.3642 23.3146 45.0056C23.3146 43.6355 24.4314 42.5303 25.79 42.5303C27.1601 42.5303 28.2653 43.6471 28.2653 45.0056C28.2768 46.3642 27.1601 47.481 25.79 47.481Z" fill="#71EBC6"/>
<path d="M49.1046 47.481C47.7345 47.481 46.6292 46.3642 46.6292 45.0056C46.6292 43.6355 47.746 42.5303 49.1046 42.5303C50.4746 42.5303 51.5799 43.6471 51.5799 45.0056C51.5914 46.3642 50.4746 47.481 49.1046 47.481Z" fill="#71EBC6"/>
<path d="M2.4754 68.7348C1.10531 68.7348 0 67.618 0 66.2594C0 64.8893 1.11682 63.7841 2.4754 63.7841C3.83398 63.7841 4.95073 64.9008 4.95073 66.2594C4.95073 67.6295 3.84549 68.7348 2.4754 68.7348Z" fill="#71EBC6"/>
<path d="M25.79 68.7348C24.4199 68.7348 23.3146 67.618 23.3146 66.2594C23.3146 64.8893 24.4314 63.7841 25.79 63.7841C27.1601 63.7841 28.2653 64.9008 28.2653 66.2594C28.2768 67.6295 27.1601 68.7348 25.79 68.7348Z" fill="#71EBC6"/>
<path d="M2.4754 90C3.84251 90 4.95073 88.8917 4.95073 87.5246C4.95073 86.1575 3.84251 85.0492 2.4754 85.0492C1.10829 85.0492 0 86.1575 0 87.5246C0 88.8917 1.10829 90 2.4754 90Z" fill="#71EBC6"/>
</svg>
