<svg width="353" height="407" viewBox="0 0 353 407" fill="none" xmlns="http://www.w3.org/2000/svg">
<path d="M149.458 6.60286C151.281 6.60286 152.759 5.12476 152.759 3.30143C152.759 1.4781 151.281 0 149.458 0C147.634 0 146.156 1.4781 146.156 3.30143C146.156 5.12476 147.634 6.60286 149.458 6.60286Z" fill="#71EBC6"/>
<path d="M183.964 9.4688C182.182 9.4688 180.742 8.02937 180.742 6.2466C180.742 4.46383 182.182 3.02441 183.964 3.02441C185.747 3.02441 187.187 4.46383 187.187 6.2466C187.187 8.02937 185.747 9.4688 183.964 9.4688Z" fill="#71EBC6"/>
<path d="M217.454 18.2373C219.19 18.2373 220.597 16.8302 220.597 15.0944C220.597 13.3586 219.19 11.9514 217.454 11.9514C215.718 11.9514 214.311 13.3586 214.311 15.0944C214.311 16.8302 215.718 18.2373 217.454 18.2373Z" fill="#71EBC6"/>
<path d="M248.897 32.6577C247.207 32.6577 245.833 31.2843 245.833 29.594C245.833 27.9037 247.207 26.5303 248.897 26.5303C250.587 26.5303 251.961 27.9037 251.961 29.594C251.974 31.2843 250.6 32.6577 248.897 32.6577Z" fill="#71EBC6"/>
<path d="M277.395 52.2549C275.744 52.2549 274.41 50.9211 274.41 49.2704C274.41 47.6197 275.744 46.2859 277.395 46.2859C279.045 46.2859 280.379 47.6197 280.379 49.2704C280.379 50.9211 279.045 52.2549 277.395 52.2549Z" fill="#71EBC6"/>
<path d="M302.103 76.4479C303.714 76.4479 305.021 75.1413 305.021 73.5294C305.021 71.9176 303.714 70.611 302.103 70.611C300.491 70.611 299.184 71.9176 299.184 73.5294C299.184 75.1413 300.491 76.4479 302.103 76.4479Z" fill="#71EBC6"/>
<path d="M322.294 104.497C320.723 104.497 319.455 103.229 319.455 101.657C319.455 100.086 320.723 98.8182 322.294 98.8182C323.866 98.8182 325.133 100.086 325.133 101.657C325.133 103.229 323.866 104.497 322.294 104.497Z" fill="#71EBC6"/>
<path d="M340.106 133.319C340.349 131.815 339.326 130.398 337.821 130.155C336.317 129.912 334.9 130.935 334.657 132.44C334.414 133.945 335.437 135.362 336.942 135.604C338.447 135.847 339.864 134.824 340.106 133.319Z" fill="#71EBC6"/>
<path d="M346.817 168.835C345.338 168.835 344.136 167.633 344.136 166.154C344.136 164.675 345.338 163.474 346.817 163.474C348.296 163.474 349.498 164.675 349.498 166.154C349.498 167.633 348.296 168.835 346.817 168.835Z" fill="#71EBC6"/>
<path d="M350.396 203.196C348.957 203.196 347.794 202.034 347.794 200.595C347.794 199.155 348.957 197.993 350.396 197.993C351.835 197.993 352.997 199.155 352.997 200.595C352.997 202.034 351.835 203.196 350.396 203.196Z" fill="#71EBC6"/>
<path d="M348.072 237.676C346.672 237.676 345.549 236.541 345.549 235.154C345.549 233.754 346.685 232.632 348.072 232.632C349.472 232.632 350.594 233.767 350.594 235.154C350.594 236.541 349.458 237.676 348.072 237.676Z" fill="#71EBC6"/>
<path d="M339.845 271.232C338.498 271.232 337.401 270.136 337.401 268.789C337.401 267.442 338.498 266.346 339.845 266.346C341.191 266.346 342.288 267.442 342.288 268.789C342.288 270.136 341.191 271.232 339.845 271.232Z" fill="#71EBC6"/>
<path d="M325.926 302.873C324.618 302.873 323.562 301.817 323.562 300.509C323.562 299.202 324.618 298.145 325.926 298.145C327.233 298.145 328.29 299.202 328.29 300.509C328.29 301.803 327.233 302.873 325.926 302.873Z" fill="#71EBC6"/>
<path d="M306.764 331.635C305.497 331.635 304.48 330.605 304.48 329.35C304.48 328.083 305.51 327.066 306.764 327.066C308.032 327.066 309.049 328.096 309.049 329.35C309.049 330.605 308.032 331.635 306.764 331.635Z" fill="#71EBC6"/>
<path d="M282.954 356.699C281.726 356.699 280.736 355.709 280.736 354.481C280.736 353.253 281.726 352.262 282.954 352.262C284.183 352.262 285.173 353.253 285.173 354.481C285.16 355.709 284.169 356.699 282.954 356.699Z" fill="#71EBC6"/>
<path d="M255.196 377.327C254.021 377.327 253.057 376.376 253.057 375.187C253.057 373.999 254.007 373.048 255.196 373.048C256.384 373.048 257.335 373.999 257.335 375.187C257.335 376.376 256.371 377.327 255.196 377.327Z" fill="#71EBC6"/>
<path d="M224.295 392.883C223.159 392.883 222.235 391.959 222.235 390.823C222.235 389.687 223.159 388.763 224.295 388.763C225.43 388.763 226.355 389.687 226.355 390.823C226.355 391.959 225.43 392.883 224.295 392.883Z" fill="#71EBC6"/>
<path d="M191.161 402.867C190.065 402.867 189.181 401.982 189.181 400.886C189.181 399.79 190.065 398.905 191.161 398.905C192.258 398.905 193.142 399.79 193.142 400.886C193.142 401.982 192.258 402.867 191.161 402.867Z" fill="#71EBC6"/>
<path d="M156.787 407C155.731 407 154.885 406.155 154.885 405.098C154.885 404.042 155.731 403.197 156.787 403.197C157.843 403.197 158.689 404.042 158.689 405.098C158.689 406.155 157.843 407 156.787 407Z" fill="#71EBC6"/>
<path d="M122.201 405.217C121.198 405.217 120.379 404.398 120.379 403.395C120.379 402.391 121.198 401.572 122.201 401.572C123.205 401.572 124.024 402.391 124.024 403.395C124.024 404.398 123.205 405.217 122.201 405.217Z" fill="#71EBC6"/>
<path d="M88.421 397.532C87.457 397.532 86.6779 396.752 86.6779 395.788C86.6779 394.824 87.457 394.045 88.421 394.045C89.3851 394.045 90.1642 394.824 90.1642 395.788C90.1642 396.752 89.3851 397.532 88.421 397.532Z" fill="#71EBC6"/>
<path d="M56.45 384.114C55.5256 384.114 54.7861 383.362 54.7861 382.451C54.7861 381.526 55.5388 380.787 56.45 380.787C57.3744 380.787 58.1139 381.539 58.1139 382.451C58.1271 383.375 57.3744 384.114 56.45 384.114Z" fill="#71EBC6"/>
<path d="M27.2654 365.402C26.3806 365.402 25.6807 364.689 25.6807 363.817C25.6807 362.946 26.3938 362.233 27.2654 362.233C28.1369 362.233 28.8501 362.946 28.8501 363.817C28.8501 364.689 28.1501 365.402 27.2654 365.402Z" fill="#71EBC6"/>
<path d="M1.68592 341.975C2.52465 341.975 3.20456 341.295 3.20456 340.457C3.20456 339.618 2.52465 338.938 1.68592 338.938C0.847185 338.938 0.167267 339.618 0.167267 340.457C0.167267 341.295 0.847185 341.975 1.68592 341.975Z" fill="#71EBC6"/>
<path d="M149.458 22.0667C151.281 22.0667 152.759 20.5886 152.759 18.7653C152.759 16.942 151.281 15.4639 149.458 15.4639C147.634 15.4639 146.156 16.942 146.156 18.7653C146.156 20.5886 147.634 22.0667 149.458 22.0667Z" fill="#71EBC6"/>
<path d="M183.555 25.0776C181.799 25.0776 180.372 23.6513 180.372 21.895C180.372 20.1386 181.799 18.7124 183.555 18.7124C185.311 18.7124 186.738 20.1386 186.738 21.895C186.738 23.6513 185.311 25.0776 183.555 25.0776Z" fill="#71EBC6"/>
<path d="M216.49 34.2951C218.175 34.2951 219.541 32.9294 219.541 31.2446C219.541 29.5599 218.175 28.1941 216.49 28.1941C214.805 28.1941 213.439 29.5599 213.439 31.2446C213.439 32.9294 214.805 34.2951 216.49 34.2951Z" fill="#71EBC6"/>
<path d="M247.127 49.4554C245.516 49.4554 244.196 48.148 244.196 46.5237C244.196 44.9126 245.503 43.592 247.127 43.592C248.738 43.592 250.059 44.8994 250.059 46.5237C250.046 48.148 248.738 49.4554 247.127 49.4554Z" fill="#71EBC6"/>
<path d="M274.423 69.977C272.878 69.977 271.624 68.7225 271.624 67.1774C271.624 65.6324 272.878 64.3778 274.423 64.3778C275.969 64.3778 277.223 65.6324 277.223 67.1774C277.223 68.7225 275.982 69.977 274.423 69.977Z" fill="#71EBC6"/>
<path d="M297.494 95.147C296.015 95.147 294.813 93.9453 294.813 92.4663C294.813 90.9872 296.015 89.7855 297.494 89.7855C298.973 89.7855 300.175 90.9872 300.175 92.4663C300.175 93.9453 298.973 95.147 297.494 95.147Z" fill="#71EBC6"/>
<path d="M315.546 124.12C314.133 124.12 312.997 122.972 312.997 121.572C312.997 120.159 314.146 119.023 315.546 119.023C316.946 119.023 318.095 120.172 318.095 121.572C318.095 122.972 316.959 124.12 315.546 124.12Z" fill="#71EBC6"/>
<path d="M327.92 155.907C329.262 155.907 330.35 154.819 330.35 153.477C330.35 152.135 329.262 151.047 327.92 151.047C326.578 151.047 325.49 152.135 325.49 153.477C325.49 154.819 326.578 155.907 327.92 155.907Z" fill="#71EBC6"/>
<path d="M334.179 189.449C332.912 189.449 331.882 188.419 331.882 187.151C331.882 185.884 332.912 184.854 334.179 184.854C335.447 184.854 336.477 185.884 336.477 187.151C336.477 188.419 335.447 189.449 334.179 189.449Z" fill="#71EBC6"/>
<path d="M334.179 223.559C332.978 223.559 332 222.582 332 221.38C332 220.179 332.978 219.202 334.179 219.202C335.381 219.202 336.358 220.179 336.358 221.38C336.358 222.582 335.381 223.559 334.179 223.559Z" fill="#71EBC6"/>
<path d="M327.92 257.089C326.784 257.089 325.873 256.164 325.873 255.042C325.873 253.906 326.797 252.995 327.92 252.995C329.056 252.995 329.967 253.919 329.967 255.042C329.967 256.164 329.056 257.089 327.92 257.089Z" fill="#71EBC6"/>
<path d="M315.546 288.888C314.476 288.888 313.618 288.03 313.618 286.96C313.618 285.89 314.476 285.032 315.546 285.032C316.616 285.032 317.474 285.89 317.474 286.96C317.474 288.017 316.616 288.888 315.546 288.888Z" fill="#71EBC6"/>
<path d="M297.507 317.848C296.517 317.848 295.711 317.043 295.711 316.052C295.711 315.062 296.517 314.256 297.507 314.256C298.497 314.256 299.303 315.062 299.303 316.052C299.303 317.043 298.497 317.848 297.507 317.848Z" fill="#71EBC6"/>
<path d="M274.437 343.018C273.512 343.018 272.76 342.266 272.76 341.341C272.76 340.417 273.512 339.664 274.437 339.664C275.361 339.664 276.114 340.417 276.114 341.341C276.101 342.266 275.361 343.018 274.437 343.018Z" fill="#71EBC6"/>
<path d="M247.127 363.54C246.269 363.54 245.582 362.84 245.582 361.995C245.582 361.15 246.282 360.45 247.127 360.45C247.986 360.45 248.672 361.15 248.672 361.995C248.672 362.84 247.986 363.54 247.127 363.54Z" fill="#71EBC6"/>
<path d="M216.49 378.7C215.698 378.7 215.064 378.066 215.064 377.274C215.064 376.482 215.698 375.848 216.49 375.848C217.282 375.848 217.916 376.482 217.916 377.274C217.916 378.066 217.282 378.7 216.49 378.7Z" fill="#71EBC6"/>
<path d="M183.555 387.931C184.277 387.931 184.862 387.346 184.862 386.624C184.862 385.902 184.277 385.316 183.555 385.316C182.833 385.316 182.248 385.902 182.248 386.624C182.248 387.346 182.833 387.931 183.555 387.931Z" fill="#71EBC6"/>
<path d="M149.458 390.929C150.107 390.929 150.633 390.402 150.633 389.753C150.633 389.104 150.107 388.578 149.458 388.578C148.809 388.578 148.283 389.104 148.283 389.753C148.283 390.402 148.809 390.929 149.458 390.929Z" fill="#71EBC6"/>
<path d="M149.458 39.8944C151.281 39.8944 152.759 38.4163 152.759 36.5929C152.759 34.7696 151.281 33.2915 149.458 33.2915C147.634 33.2915 146.156 34.7696 146.156 36.5929C146.156 38.4163 147.634 39.8944 149.458 39.8944Z" fill="#71EBC6"/>
<path d="M182.182 42.7867C180.518 42.7867 179.184 41.4397 179.184 39.789C179.184 38.125 180.531 36.7913 182.182 36.7913C183.832 36.7913 185.179 38.1382 185.179 39.789C185.193 41.4397 183.846 42.7867 182.182 42.7867Z" fill="#71EBC6"/>
<path d="M213.651 52.0174C212.159 52.0174 210.944 50.8024 210.944 49.3102C210.944 47.818 212.159 46.603 213.651 46.603C215.143 46.603 216.358 47.818 216.358 49.3102C216.358 50.8024 215.143 52.0174 213.651 52.0174Z" fill="#71EBC6"/>
<path d="M242.624 67.2305C243.952 67.2305 245.028 66.1544 245.028 64.827C245.028 63.4997 243.952 62.4236 242.624 62.4236C241.297 62.4236 240.221 63.4997 240.221 64.827C240.221 66.1544 241.297 67.2305 242.624 67.2305Z" fill="#71EBC6"/>
<path d="M268.032 87.8048C266.87 87.8048 265.919 86.854 265.919 85.6919C265.919 84.5298 266.87 83.579 268.032 83.579C269.194 83.579 270.145 84.5298 270.145 85.6919C270.145 86.854 269.194 87.8048 268.032 87.8048Z" fill="#71EBC6"/>
<path d="M288.897 112.909C287.893 112.909 287.088 112.103 287.088 111.1C287.088 110.096 287.893 109.291 288.897 109.291C289.901 109.291 290.706 110.096 290.706 111.1C290.706 112.103 289.901 112.909 288.897 112.909Z" fill="#71EBC6"/>
<path d="M304.414 141.592C303.582 141.592 302.895 140.918 302.895 140.073C302.895 139.241 303.568 138.554 304.414 138.554C305.246 138.554 305.932 139.228 305.932 140.073C305.932 140.918 305.246 141.592 304.414 141.592Z" fill="#71EBC6"/>
<path d="M313.948 172.757C313.275 172.757 312.733 172.216 312.733 171.542C312.733 170.869 313.275 170.327 313.948 170.327C314.622 170.327 315.163 170.869 315.163 171.542C315.163 172.216 314.622 172.757 313.948 172.757Z" fill="#71EBC6"/>
<path d="M317.144 205.177C317.647 205.177 318.055 204.769 318.055 204.266C318.055 203.763 317.647 203.355 317.144 203.355C316.641 203.355 316.233 203.763 316.233 204.266C316.233 204.769 316.641 205.177 317.144 205.177Z" fill="#71EBC6"/>
</svg>
