<?xml version="1.0" standalone="no"?>
<!DOCTYPE svg PUBLIC "-//W3C//DTD SVG 20010904//EN"
 "http://www.w3.org/TR/2001/REC-SVG-20010904/DTD/svg10.dtd">
<svg version="1.0" xmlns="http://www.w3.org/2000/svg"
 width="260.000000pt" height="260.000000pt" viewBox="0 0 260.000000 260.000000"
 preserveAspectRatio="xMidYMid meet">
<metadata>
Created by potrace 1.14, written by Peter Selinger 2001-2017
</metadata>
<g transform="translate(0.000000,260.000000) scale(0.100000,-0.100000)"
fill="#000000" stroke="none">
<path d="M620 2580 c-134 -29 -238 -73 -345 -146 -60 -42 -165 -138 -165 -152
0 -8 1642 -7 1664 1 11 4 12 15 6 49 -24 126 -104 215 -226 251 -75 22 -828
20 -934 -3z"/>
<path d="M1745 2584 c152 -33 253 -104 303 -212 25 -55 25 -62 25 -258 -1
-278 -11 -340 -79 -463 -30 -53 -102 -131 -368 -399 -182 -183 -333 -336 -336
-338 -2 -3 195 -4 438 -4 407 1 448 3 513 21 39 11 90 29 113 41 102 52 186
153 226 272 20 62 21 80 18 358 -4 274 -5 297 -27 358 -52 148 -130 273 -232
372 -165 161 -366 251 -581 263 l-83 4 70 -15z"/>
<path d="M380 1670 c-183 -38 -302 -145 -365 -329 -13 -37 -15 -98 -15 -330
l1 -286 33 -95 c52 -154 111 -247 225 -360 155 -153 346 -244 551 -263 l65 -6
-60 17 c-131 39 -220 105 -266 199 -23 46 -24 58 -26 276 -1 250 6 306 56 412
41 89 96 151 423 477 164 164 298 299 298 300 0 2 -190 3 -422 3 -342 0 -437
-3 -498 -15z"/>
<path d="M816 312 c-9 -14 5 -76 28 -128 30 -65 80 -115 153 -150 l58 -29 416
-1 c229 -1 438 2 465 7 27 5 61 12 76 14 47 9 171 58 233 93 74 42 146 97 205
156 l44 46 -836 0 c-460 0 -839 -4 -842 -8z"/>
</g>
</svg>
