<?xml version="1.0" standalone="no"?>
<!DOCTYPE svg PUBLIC "-//W3C//DTD SVG 20010904//EN"
 "http://www.w3.org/TR/2001/REC-SVG-20010904/DTD/svg10.dtd">
<svg version="1.0" xmlns="http://www.w3.org/2000/svg"
 width="260.000000pt" height="260.000000pt" viewBox="0 0 260.000000 260.000000"
 preserveAspectRatio="xMidYMid meet">
<metadata>
Created by potrace 1.14, written by Peter Selinger 2001-2017
</metadata>
<g transform="translate(0.000000,260.000000) scale(0.100000,-0.100000)"
fill="#000000" stroke="none">
<path d="M79 2562 c18 -36 40 -83 101 -217 13 -27 50 -108 83 -180 32 -71 106
-231 162 -355 57 -124 119 -261 140 -305 20 -44 43 -93 50 -110 8 -16 63 -138
123 -270 60 -132 122 -267 137 -300 15 -33 42 -92 60 -131 l33 -72 -33 -73
c-18 -41 -47 -105 -64 -144 -55 -117 -58 -126 -114 -255 -30 -69 -53 -128 -50
-132 2 -5 30 -8 61 -8 l58 0 78 176 c44 97 91 201 105 231 l27 54 101 -228
102 -228 66 0 65 0 59 130 c32 72 70 157 85 190 16 33 35 77 43 98 14 34 33
50 33 28 0 -5 15 -42 34 -83 66 -143 156 -348 156 -355 0 -10 117 -10 126 0 4
3 -51 134 -121 289 -70 156 -129 292 -132 303 -2 11 15 62 40 115 24 52 65
140 90 195 25 55 62 136 82 180 20 44 51 109 67 145 16 36 40 88 53 115 13 28
89 194 170 370 81 176 199 431 262 568 62 136 111 251 108 256 -9 16 -95 45
-104 35 -5 -5 -44 -85 -86 -179 -43 -93 -97 -212 -121 -263 -24 -51 -44 -95
-44 -96 0 -2 -20 -46 -44 -97 -24 -52 -84 -182 -134 -289 -49 -107 -99 -215
-110 -240 -149 -321 -285 -619 -289 -632 -3 -10 -9 -18 -12 -18 -4 0 -41 73
-81 163 -41 89 -86 187 -101 217 l-26 54 27 61 c15 33 43 94 63 135 19 41 69
150 111 242 42 92 99 215 126 273 28 58 50 108 50 109 0 2 20 46 44 97 63 133
196 422 196 426 0 6 -80 43 -95 43 -10 0 -35 -40 -70 -115 -30 -64 -55 -117
-55 -119 0 -2 -22 -50 -49 -107 -27 -57 -85 -183 -129 -279 -44 -96 -97 -211
-117 -255 -57 -122 -94 -203 -131 -284 -19 -41 -36 -72 -38 -70 -3 2 -48 99
-101 214 -54 116 -111 239 -127 275 -34 72 -43 94 -168 365 -48 105 -107 232
-130 283 l-43 92 -339 0 -338 0 19 -38z m549 -41 c9 -1 112 -198 112 -216 0
-1 24 -54 54 -116 29 -63 64 -136 76 -164 12 -27 36 -79 52 -115 17 -36 42
-90 55 -120 78 -171 198 -431 229 -496 l35 -76 -102 -225 c-63 -138 -105 -219
-110 -211 -4 7 -54 117 -112 243 -58 127 -118 259 -135 295 -16 36 -69 151
-117 255 -47 105 -97 213 -110 240 -13 28 -57 124 -98 215 -82 181 -119 261
-178 389 -44 95 -45 98 -22 103 13 2 318 1 371 -1z m779 -1666 c12 -27 40 -89
62 -137 23 -48 41 -91 41 -94 0 -4 -46 -108 -102 -232 l-102 -224 -23 48 c-13
27 -59 129 -103 226 l-79 177 23 53 c13 29 44 96 68 148 24 52 60 130 79 173
l34 77 40 -82 c23 -46 50 -105 62 -133z"/>
</g>
</svg>
