<svg width="154" height="47" viewBox="0 0 154 47" fill="none" xmlns="http://www.w3.org/2000/svg">
<path d="M80.702 23.6674L62.9094 41.4862L68.1456 46.7224L91.2005 23.6674L68.1456 0.638672L62.9094 5.87489L80.702 23.6674Z" fill="#151313"/>
<path d="M49.6234 23.6674L31.8308 41.4862L37.0669 46.7224L60.1219 23.6674L37.0669 0.638672L31.8308 5.87489L49.6234 23.6674Z" fill="#151313"/>
<path d="M18.1802 23.6674L0.361516 41.4862L5.62381 46.7224L28.6526 23.6674L5.62381 0.638672L0.361515 5.87489L18.1802 23.6674Z" fill="#151313"/>
<path d="M143.224 23.6674L125.431 41.4862L130.667 46.7224L153.722 23.6674L130.667 0.638672L125.431 5.87489L143.224 23.6674Z" fill="#151313"/>
<path d="M112.145 23.6674L94.3525 41.4862L99.5887 46.7224L122.644 23.6674L99.5887 0.638672L94.3525 5.87489L112.145 23.6674Z" fill="#151313"/>
</svg>
