<svg width="101" height="79" viewBox="0 0 101 79" fill="none" xmlns="http://www.w3.org/2000/svg">
<path fill-rule="evenodd" clip-rule="evenodd" d="M56.213 67.3487C47.7792 67.3487 53.3286 68.0068 54.4824 58.8417C56.2049 45.1266 69.2375 45.1266 71.1631 58.8417C72.3981 67.6574 77.6876 67.3487 69.4325 67.3487H66.1337C66.1175 69.5993 65.7762 70.2899 68.1 71.5493C69.2862 72.1912 71.5044 72.6706 73.3894 73.4181C76.2738 70.9562 81.3926 72.5812 81.9207 68.0637C82.002 67.373 80.377 65.2036 80.0113 63.9524C79.2151 62.6767 78.9307 60.6698 79.8001 59.3292C80.1413 58.793 80.0032 56.8511 80.0032 56.1198C80.0032 48.8154 92.8002 48.8073 92.8002 56.1198C92.8002 57.0379 92.5889 58.7442 93.0846 59.4673C93.9214 60.6861 93.4908 62.8392 92.7839 63.9605C92.3289 65.2849 90.6064 67.3324 90.7527 68.0718C91.9958 74.3931 100.608 67.6249 100.608 79C67.3281 79 34.0478 78.545 0.767578 78.545C0.767578 66.983 11.6795 73.8325 12.5164 66.7555C12.6058 65.9836 10.7858 63.4974 10.3714 62.0917C9.48577 60.6698 9.15264 58.403 10.1358 56.8998C10.5258 56.3067 10.3633 54.121 10.3633 53.2923C10.3633 45.1022 24.704 45.1022 24.704 53.2923C24.704 54.3323 24.4684 56.2336 25.029 57.0461C25.9715 58.403 25.484 60.8161 24.6959 62.0836C24.184 63.5705 22.2584 65.9105 22.4127 66.7474C23.014 69.8105 30.6434 71.4356 33.3003 72.5568C34.8035 71.7849 36.006 71.3299 36.136 70.2656C36.201 69.713 34.901 68.0799 34.6085 67.0724C33.9747 66.0568 33.7472 64.448 34.4378 63.3755C34.7141 62.9449 34.6003 61.4011 34.6003 60.808C34.6003 54.9823 44.8217 54.9742 44.8217 60.808C44.8217 61.5474 44.651 62.9042 45.0492 63.4811C45.7236 64.4561 45.3742 66.1705 44.8054 67.0724C44.4479 68.1287 43.0667 69.6724 43.1885 70.2656C43.9442 74.0925 48.0717 71.9149 50.0298 74.5881C51.8742 73.1418 55.5468 72.7356 57.7812 71.3949C59.8287 70.1681 59.4793 69.3962 59.463 67.3568L56.2049 66.8937V67.3487H56.213ZM78.0857 49.3923H72.3575C71.3175 47.9216 70.1069 46.7516 68.7906 45.8904C66.8893 44.6391 64.7931 44.0216 62.6887 44.0297C60.568 44.0378 58.4718 44.6879 56.5868 45.9635C55.3274 46.8166 54.1655 47.9623 53.1661 49.3923H28.5634C27.4097 46.386 24.9153 44.3791 21.9496 43.3472C20.5115 42.8516 19.0083 42.5997 17.5458 42.5997C16.0833 42.5997 14.5802 42.8516 13.1421 43.3472C12.6058 43.5341 12.0777 43.7535 11.5739 44.0053V42.7866C11.5739 41.966 12.2483 41.2835 13.0771 41.2835H14.1658V2.18564C14.1658 1.59251 14.4096 1.04001 14.8077 0.64188C15.1977 0.243752 15.7502 0 16.3596 0C39.256 0 59.6012 0 85.0407 0C85.642 0 86.1945 0.243752 86.5926 0.64188C86.6333 0.682505 86.6658 0.723131 86.6983 0.755631C87.0395 1.13751 87.2345 1.64126 87.2345 2.18564V41.2916H88.3233C89.1439 41.2916 89.8264 41.966 89.8264 42.7947V46.5729C88.697 46.2479 87.5351 46.0935 86.4139 46.0935C85.057 46.0935 83.6595 46.3291 82.327 46.7922C80.7101 47.3447 79.2476 48.2141 78.0857 49.3923ZM61.2749 17.5014C61.2749 17.867 60.9824 18.1595 60.6168 18.1595C60.2512 18.1595 59.9587 17.867 59.9587 17.5014V14.9257C59.9587 13.9182 59.6987 12.8864 59.2437 11.9438C58.7724 10.9607 58.1062 10.0751 57.3099 9.4007C55.6118 7.96256 53.3855 7.23131 51.143 7.20693C48.8761 7.18256 46.6011 7.87319 44.8542 9.2707C44.0092 9.94508 43.2373 10.8226 42.701 11.8138C42.2298 12.6751 41.9454 13.6095 41.9454 14.552V17.5339L41.9616 17.5258L42.5548 18.2651C42.506 17.0789 42.506 15.8114 42.5548 14.6901C42.5954 14.3082 42.6685 13.9264 42.7742 13.5364C43.741 10.0832 47.6736 8.07631 51.0942 8.26319C53.743 8.40944 56.2293 9.37632 57.8055 11.1882C59.9993 13.7232 59.4305 16.8514 59.3574 19.947C59.853 20.1014 60.1699 20.4102 60.2918 20.9139C60.4299 21.4745 60.2755 22.2627 59.8043 23.3352C59.7962 23.3514 59.788 23.3758 59.7718 23.3921L57.7487 26.7233C56.9686 28.0071 56.1724 29.299 55.1243 30.2821C55.0511 30.3471 56.3918 32.354 56.5461 32.5815C58.7643 34.2553 64.4518 34.6371 66.6212 35.8397C67.3281 36.2378 67.97 36.7415 68.4819 37.4159C69.7006 39.0247 69.8469 39.2847 70.2856 41.1047H84.5695V2.64877C66.7268 2.64877 36.0385 2.66502 16.8065 2.66502V41.1291H31.0903C31.5291 39.3009 31.6672 39.0491 32.8941 37.4403C33.406 36.7578 34.0478 36.254 34.7547 35.864C36.9241 34.6534 42.6117 34.2715 44.8298 32.5978L45.9023 29.4777C45.2686 28.7221 44.716 27.869 44.196 27.0321L42.4573 24.2696C42.3273 24.2614 42.1973 24.2371 42.0673 24.1964C40.6779 23.7577 39.5241 20.662 39.7435 19.1995C39.8735 18.3708 40.166 18.0783 40.6373 17.8914C40.6129 17.8264 40.6048 17.7533 40.6048 17.6801V14.5601C40.6048 13.3901 40.9541 12.2363 41.531 11.1882C42.1567 10.0426 43.0504 9.01882 44.0173 8.24694C45.9998 6.66255 48.5755 5.87442 51.1348 5.8988C53.678 5.9313 56.2049 6.75193 58.1468 8.40132C59.0812 9.19757 59.8693 10.2376 60.4218 11.3832C60.9581 12.5045 61.2668 13.7314 61.2668 14.9339L61.2749 17.5014ZM46.6579 30.2659C46.3654 31.2409 45.8454 32.9634 45.3579 33.7028L48.1773 39.4309L49.7455 36.1159C47.2429 32.1996 54.4905 32.4271 51.9392 36.1159L53.5074 39.4309L56.1399 33.7028C55.4736 32.8496 54.913 31.8827 54.3361 30.9565C52.0449 32.6546 48.6323 32.2484 46.6579 30.2659ZM43.4323 20.6052L44.2042 22.7177C44.2854 22.9614 44.3098 23.1727 44.2773 23.3596L44.2854 23.3514C45.4879 24.6921 46.9748 25.659 48.7623 26.2196C48.8517 26.0165 48.9817 25.8296 49.1605 25.6915C49.7048 25.2689 51.3055 25.3096 51.793 25.7158C52.2074 26.0571 52.2155 26.8452 51.9067 27.2515C51.2648 28.1046 48.6161 27.3896 47.7223 27.0971C46.3004 26.6421 45.0085 25.5371 43.8385 24.5539L45.0492 26.4715C45.7642 27.6008 46.5036 28.7546 47.4379 29.6077C48.3317 30.4202 49.4123 30.9727 50.8423 30.9809C52.3942 30.9809 53.5236 30.4121 54.4418 29.5509C55.4005 28.6571 56.1561 27.4302 56.8955 26.2033L58.8943 22.9127C59.268 22.0595 59.4062 21.4908 59.3168 21.1577C59.268 20.9545 59.0487 20.8652 58.6749 20.8408C58.5937 20.8408 58.5124 20.8408 58.4312 20.8408C58.3418 20.8408 58.2443 20.8489 58.1549 20.857C58.098 20.857 58.0493 20.857 58.0005 20.8489C57.8218 20.857 57.6349 20.8489 57.448 20.8164L58.1387 17.7858C53.0524 18.582 49.258 14.812 43.8873 17.0301L44.2773 20.6052C44.0579 20.6133 43.8548 20.6052 43.6679 20.5808C43.5785 20.5889 43.5054 20.597 43.4323 20.6052Z" fill="white"/>
</svg>
