<svg width="72" height="79" viewBox="0 0 72 79" fill="none" xmlns="http://www.w3.org/2000/svg">
<g clip-path="url(#clip0_184_2030)">
<path fill-rule="evenodd" clip-rule="evenodd" d="M19.1264 2.94453C20.5678 1.71266 22.2898 0.853855 24.141 0.443634C25.9145 0.043178 27.7525 0.0212712 29.535 0.379343C30.9926 0.665446 32.381 1.23088 33.6238 2.04446C34.7404 1.2871 35.9805 0.730156 37.2884 0.398631C38.9126 -0.0237498 40.606 -0.10908 42.2645 0.147898C43.9373 0.408087 45.5466 0.979413 47.0091 1.83231C49.1814 3.09703 50.9786 4.91641 52.2166 7.10412C54.3663 7.07995 56.4653 7.75704 58.1956 9.03283C59.3636 9.88505 60.344 10.9683 61.0758 12.2152C61.8512 13.5154 62.3196 14.9754 62.4452 16.4841C62.7345 20.0522 61.1594 23.9611 56.3955 26.9634C55.92 27.2616 55.3882 27.4586 54.8332 27.542V33.5082L59.1471 33.1031C65.8269 32.5181 71.3623 38.5935 71.3623 45.3183V59.6165C71.3623 66.1934 65.9555 72.1403 59.4043 71.5745L54.8525 71.1759V74.7826C54.8458 75.899 54.3993 76.9678 53.6098 77.7573C52.8203 78.5468 51.7515 78.9933 50.6351 79H11.9066C10.794 78.9882 9.73083 78.5393 8.94654 77.7502C8.16225 76.9611 7.71982 75.8951 7.71482 74.7826V27.452C7.41284 27.3169 7.12796 27.1464 6.86619 26.9441C1.24721 22.9774 -0.495059 18.1749 0.1157 13.9575C0.457895 11.7034 1.47043 9.60436 3.02162 7.93346C4.52626 6.29682 6.4422 5.09353 8.56988 4.44892C11.4633 3.55354 14.582 3.72693 17.3584 4.93753C17.8589 4.1975 18.4556 3.5273 19.1328 2.94453H19.1264ZM55.0325 41.1459H60.1758C60.9846 41.1493 61.7594 41.4721 62.3314 42.044C62.9033 42.616 63.2262 43.3908 63.2295 44.1997V60.9859C63.2262 61.7208 62.9323 62.4246 62.4119 62.9437C61.8916 63.4628 61.1872 63.7551 60.4522 63.7568H55.0325V41.1459ZM28.7313 38.6321C28.7313 37.962 28.9975 37.3194 29.4714 36.8455C29.9452 36.3717 30.5879 36.1055 31.258 36.1055C31.9281 36.1055 32.5707 36.3717 33.0445 36.8455C33.5184 37.3194 33.7846 37.962 33.7846 38.6321V64.824C33.7846 65.4941 33.5184 66.1368 33.0445 66.6106C32.5707 67.0844 31.9281 67.3506 31.258 67.3506C30.5879 67.3506 29.9452 67.0844 29.4714 66.6106C28.9975 66.1368 28.7313 65.4941 28.7313 64.824V38.6321ZM40.4258 40.7023C40.4584 40.055 40.7386 39.4451 41.2082 38.9986C41.6778 38.5521 42.3011 38.3031 42.9492 38.3031C43.5972 38.3031 44.2205 38.5521 44.6901 38.9986C45.1598 39.4451 45.4399 40.055 45.4726 40.7023V62.7539C45.4898 63.096 45.4374 63.438 45.3183 63.7592C45.1993 64.0804 45.0163 64.374 44.7802 64.6222C44.5442 64.8705 44.2602 65.0681 43.9454 65.2032C43.6306 65.3382 43.2917 65.4079 42.9492 65.4079C42.6066 65.4079 42.2677 65.3382 41.9529 65.2032C41.6381 65.0681 41.3541 64.8705 41.1181 64.6222C40.8821 64.374 40.699 64.0804 40.58 63.7592C40.461 63.438 40.4085 63.096 40.4258 62.7539V40.7023ZM17.0369 40.7023C17.0369 40.0322 17.3031 39.3895 17.7769 38.9157C18.2508 38.4418 18.8934 38.1757 19.5635 38.1757C20.2336 38.1757 20.8763 38.4418 21.3501 38.9157C21.824 39.3895 22.0901 40.0322 22.0901 40.7023V62.7539C22.0901 63.0857 22.0248 63.4142 21.8978 63.7208C21.7708 64.0273 21.5847 64.3058 21.3501 64.5404C21.1155 64.7751 20.837 64.9612 20.5304 65.0881C20.2239 65.2151 19.8953 65.2805 19.5635 65.2805C19.2317 65.2805 18.9032 65.2151 18.5966 65.0881C18.2901 64.9612 18.0116 64.7751 17.7769 64.5404C17.5423 64.3058 17.3562 64.0273 17.2293 63.7208C17.1023 63.4142 17.0369 63.0857 17.0369 62.7539V40.7023ZM9.32208 23.7489C-3.85744 14.5875 10.6786 1.47228 19.6793 11.5723C18.9528 3.16312 30.9108 1.82588 33.5403 7.95275C37.3977 1.27941 47.6841 3.491 49.825 11.8102C55.6561 8.53779 63.326 17.7442 54.2418 23.4982C52.3405 23.7657 50.419 23.8604 48.5006 23.781C45.4918 23.7296 44.7654 25.2661 44.7075 28.0049C44.5853 33.6882 37.0441 34.6525 34.421 30.943C32.6081 28.3714 34.1896 23.7232 27.0791 23.7232L9.32208 23.7489Z" fill="white"/>
</g>
<defs>
<clipPath id="clip0_184_2030">
<rect width="71.3366" height="79" fill="white"/>
</clipPath>
</defs>
</svg>
