<svg width="81" height="79" viewBox="0 0 81 79" fill="none" xmlns="http://www.w3.org/2000/svg">
<path fill-rule="evenodd" clip-rule="evenodd" d="M38.3514 38.0534C38.143 38.3782 37.9347 38.7029 37.7394 39.0407C35.3755 43.6293 34.6402 48.8817 35.6535 53.9408C36.6668 58.9999 39.3689 63.5671 43.3188 66.8972L42.7784 67.4947C40.3876 69.566 37.4829 70.9586 34.368 71.5268C31.2532 72.095 28.0425 71.818 25.0716 70.7247C22.1008 69.6315 19.4789 67.7621 17.48 65.3121C15.4811 62.8621 14.1786 59.9214 13.7088 56.7973C13.2389 53.6733 13.6189 50.4807 14.809 47.5533C15.9991 44.626 17.9557 42.0713 20.4741 40.1564C22.9925 38.2414 25.9803 37.0366 29.1252 36.6678C32.2701 36.299 35.4565 36.7798 38.3514 38.0599V38.0534ZM11.0405 23.9596C11.1167 23.9298 11.195 23.906 11.2748 23.8881L31.509 18.0427L26.2291 13.3859L13.2084 17.1335L11.06 23.9336L11.0405 23.9596ZM24.3802 7.39116H24.289C24.1767 7.01952 23.9909 6.67406 23.7427 6.37512C23.4945 6.07619 23.1888 5.82982 22.8437 5.65054C22.5052 5.45226 22.1295 5.32521 21.7399 5.27718C21.3503 5.22915 20.9549 5.26116 20.5781 5.37126L20.5456 5.27383C20.9241 5.16763 21.2767 4.9848 21.5814 4.73674C21.886 4.48868 22.1362 4.1807 22.3164 3.83197C22.5164 3.49354 22.645 3.11791 22.6942 2.72813C22.7435 2.33834 22.7124 1.94263 22.6028 1.56526H22.694C22.8005 1.94383 22.9845 2.29627 23.2343 2.60034C23.4842 2.9044 23.7946 3.15348 24.1458 3.33187C24.4839 3.53122 24.8593 3.65942 25.249 3.70856C25.6386 3.75771 26.0342 3.72677 26.4114 3.61764V3.70857C26.0333 3.81584 25.6812 3.99907 25.3767 4.24702C25.0722 4.49497 24.8217 4.8024 24.6406 5.15043C24.4485 5.4873 24.3264 5.85935 24.2817 6.24434C24.2369 6.62933 24.2704 7.01938 24.3802 7.39116ZM11.4897 10.9568L11.3139 11.0088C11.1124 10.3018 10.7682 9.64332 10.3025 9.07373C9.83676 8.50414 9.25934 8.03546 8.60561 7.69642C7.97322 7.32046 7.27043 7.07754 6.54044 6.9826C5.81046 6.88766 5.06873 6.94271 4.36086 7.14436L4.30878 6.96899C5.01553 6.77149 5.67421 6.43157 6.24416 5.97022C6.8141 5.50887 7.28322 4.93588 7.62255 4.28661C7.99542 3.65405 8.23508 2.95227 8.32687 2.22417C8.41866 1.49606 8.36065 0.756937 8.15639 0.051959L8.33217 0C8.53274 0.70663 8.87661 1.36465 9.34247 1.93331C9.80833 2.50196 10.3863 2.96913 11.0405 3.30589C11.6709 3.67808 12.3713 3.91687 13.0982 4.00737C13.8251 4.09788 14.5629 4.03817 15.2657 3.83197L15.3178 4.01383C14.6108 4.21506 13.9526 4.55861 13.3838 5.02329C12.8151 5.48797 12.3477 6.06394 12.0105 6.71569C11.6367 7.34914 11.3971 8.05231 11.3064 8.78177C11.2157 9.51122 11.2759 10.2515 11.4832 10.9568H11.4897ZM4.78404 19.4326H4.68638C4.57886 19.0555 4.39519 18.7042 4.14665 18.4004C3.89811 18.0966 3.58995 17.8467 3.24108 17.666C2.89612 17.4683 2.51395 17.3438 2.1185 17.3002C1.72305 17.2566 1.32285 17.2949 0.942932 17.4127L0.942932 17.3153C1.3215 17.2091 1.67409 17.0263 1.97874 16.7782C2.2834 16.5302 2.53359 16.2222 2.71375 15.8735C2.90893 15.5391 3.03434 15.1688 3.08245 14.7849C3.13056 14.4009 3.10037 14.0112 2.99369 13.6392L3.09135 13.6068C3.1978 13.9844 3.38106 14.3362 3.62972 14.6401C3.87837 14.944 4.18709 15.1936 4.53664 15.3734C4.87688 15.5677 5.25319 15.6909 5.64268 15.7356C6.03216 15.7802 6.42668 15.7454 6.80224 15.6331V15.7241C6.42327 15.8314 6.07048 16.0153 5.76583 16.2645C5.46119 16.5137 5.2112 16.8227 5.03143 17.1724C4.83232 17.5101 4.70475 17.8848 4.6566 18.2736C4.60845 18.6624 4.64074 19.0568 4.75148 19.4326H4.78404ZM18.5599 32.8186L8.95066 25.5313C8.76605 25.3891 8.62876 25.1946 8.55674 24.9733C8.48473 24.7519 8.48134 24.5141 8.54701 24.2908L11.1967 15.9059C11.2553 15.7121 11.3656 15.5378 11.5159 15.4017C11.6661 15.2655 11.8506 15.1727 12.0496 15.133L26.2031 11.0413C26.387 10.9887 26.5811 10.9831 26.7677 11.0251C26.9543 11.0671 27.1273 11.1553 27.2708 11.2816L33.7811 17.0295C33.9561 17.1839 34.0793 17.3882 34.134 17.6147C34.1888 17.8413 34.1724 18.0791 34.0871 18.296L30.1028 29.3958C34.5765 29.1997 39.0198 30.2164 42.9607 32.338C46.0097 29.6571 49.7199 27.8354 53.7092 27.0606C57.6986 26.2858 61.8228 26.5858 65.6573 27.9297C69.4918 29.2737 72.8978 31.613 75.5248 34.7067C78.1518 37.8005 79.9046 41.5369 80.6029 45.5312C81.3012 49.5254 80.9197 53.6332 79.4976 57.4315C78.0755 61.2297 75.6643 64.5812 72.5122 67.1407C69.3602 69.7003 65.5812 71.3754 61.5645 71.9935C57.5478 72.6117 53.4385 72.1506 49.6598 70.6577C49.3734 71.0019 49.0804 71.3461 48.7744 71.6839C46.2833 74.1842 43.2864 76.1258 39.9836 77.3794C36.6808 78.6329 33.1481 79.1695 29.6211 78.9533C26.094 78.7372 22.6537 77.7733 19.5295 76.1259C16.4054 74.4784 13.6692 72.1854 11.5036 69.3997C9.33795 66.614 7.79257 63.3997 6.97054 59.9711C6.14851 56.5425 6.06872 52.9784 6.73648 49.5166C7.40425 46.0548 8.80422 42.7749 10.843 39.8955C12.8818 37.0161 15.5126 34.6035 18.5599 32.8186ZM48.5075 36.3778C51.6177 39.383 53.8828 43.1499 55.0764 47.3021C56.8548 53.1922 56.2592 59.542 53.4163 65.0007C55.8419 65.7339 58.4056 65.8918 60.9032 65.462C63.4007 65.0321 65.7632 64.0263 67.8023 62.5247C69.8414 61.0231 71.5008 59.0671 72.6482 56.8126C73.7957 54.5582 74.3996 52.0675 74.4118 49.5391C74.424 47.0107 73.8441 44.5144 72.7183 42.249C71.5926 39.9837 69.9521 38.0119 67.9275 36.4909C65.903 34.9698 63.5503 33.9414 61.057 33.4876C58.5637 33.0339 55.9986 33.1673 53.566 33.8772C51.7318 34.3683 50.0127 35.2159 48.5075 36.3713V36.3778ZM47.2771 61.4739L47.2315 61.5519C44.657 59.2496 42.8842 56.1893 42.1702 52.8144C41.4561 49.4396 41.8379 45.9256 43.2602 42.7817L43.8526 41.8659C46.3378 44.4092 47.9946 47.6423 48.6057 51.1414C49.2168 54.6404 48.7536 58.2421 47.2771 61.4739Z" fill="white"/>
</svg>
