<svg width="77" height="79" viewBox="0 0 77 79" fill="none" xmlns="http://www.w3.org/2000/svg">
<path fill-rule="evenodd" clip-rule="evenodd" d="M64.551 61.4472L67.2202 71.4108L73.6146 69.6972C74.8064 69.3776 76.0429 70.0908 76.3625 71.2826L76.9429 73.4501L56.2316 79L55.6511 76.8325C55.3315 75.6407 56.0448 74.4042 57.2366 74.0846L63.6325 72.3725L60.9617 62.409C56.9263 63.1608 53.3416 62.6776 50.3822 61.0273C46.9874 59.1346 44.5251 55.7769 43.2623 51.0591L38.6572 35.436L35.5619 45.9353C34.2574 51.5485 32.1501 58.1173 26.9322 61.0273C23.9727 62.6776 20.3881 63.1608 16.3526 62.409L13.6819 72.3725L20.0778 74.0846C21.2696 74.4042 21.9828 75.6407 21.6632 76.8325L21.0828 79L0.371399 73.4501L0.951861 71.2826C1.27142 70.0908 2.50799 69.3776 3.69979 69.6972L10.0941 71.4108L12.7633 61.4472C8.90542 60.0825 6.03244 57.8749 4.29106 54.9571C2.30421 51.6334 1.84108 47.5022 3.10852 42.7705L7.77692 27.1351L8.36819 24.9291L38.6572 33.0447L68.9462 24.9291L69.5374 27.1351L72.239 37.216L73.9696 43.8666C74.8341 48.007 74.7647 52.0425 73.0233 54.9571C71.2819 57.8749 68.4089 60.0825 64.551 61.4472ZM41.5981 37.5109C55.523 49.0367 60.3797 39.2121 69.9419 37.4615L67.3329 27.7233L40.7984 34.834L41.5981 37.5109ZM36.1748 35.9764C22.5416 49.3517 16.9516 39.1303 6.80897 38.3476L9.98144 27.7233L36.5159 34.834L36.1748 35.9764ZM50.7728 19.8191C48.2657 22.7709 46.2495 26.1842 44.8802 29.7271L46.813 29.2239C48.3413 26.4142 50.146 23.9549 52.3011 21.982C54.6106 19.867 52.3521 17.9651 50.7728 19.8191ZM43.5386 5.8047C43.6047 5.82257 43.6667 5.85349 43.7207 5.89563C43.7747 5.93778 43.8197 5.9903 43.8531 6.05012C43.8866 6.10993 43.9077 6.17582 43.9152 6.24391C43.9228 6.31201 43.9167 6.38093 43.8972 6.44662C43.8778 6.51231 43.8454 6.57345 43.8019 6.62643C43.7585 6.67941 43.7049 6.72317 43.6443 6.75513C43.5837 6.78709 43.5173 6.80661 43.449 6.81254C43.3808 6.81846 43.312 6.81067 43.2468 6.78963C43.1161 6.75086 43.006 6.66178 42.9409 6.54194C42.8758 6.42211 42.8609 6.28132 42.8995 6.15051C42.9385 6.01998 43.0277 5.91027 43.1475 5.84544C43.2674 5.78061 43.408 5.76596 43.5386 5.8047ZM53.4173 5.35546C53.5824 5.40417 53.7364 5.48495 53.8703 5.59317C54.0042 5.7014 54.1155 5.83495 54.1978 5.9862C54.2801 6.13745 54.3318 6.30344 54.3499 6.47467C54.368 6.6459 54.3522 6.81902 54.3034 6.98415C54.0981 7.67885 53.3679 8.0756 52.6747 7.87028C52.5095 7.82157 52.3556 7.74079 52.2217 7.63257C52.0878 7.52434 51.9765 7.39079 51.8942 7.23954C51.8119 7.08829 51.7602 6.9223 51.7421 6.75107C51.724 6.57984 51.7398 6.40672 51.7886 6.24159C51.9954 5.54689 52.7226 5.15014 53.4173 5.35546ZM53.4991 14.4931C54.0101 14.6459 54.3034 15.1832 54.1506 15.6957C54.0008 16.2067 53.4636 16.5 52.9495 16.3487C52.4385 16.1974 52.1467 15.6602 52.2965 15.1477C52.4493 14.6351 52.9866 14.3418 53.4991 14.4931ZM24.1873 0.0325027C24.2866 0.0618812 24.3792 0.110565 24.4596 0.175765C24.5401 0.240965 24.6069 0.3214 24.6562 0.412463C24.7056 0.503526 24.7365 0.603427 24.7471 0.706444C24.7578 0.809461 24.748 0.913568 24.7184 1.0128C24.5949 1.43117 24.1564 1.67045 23.7396 1.54695C23.6401 1.51775 23.5473 1.46922 23.4666 1.40412C23.3859 1.33903 23.3188 1.25865 23.2692 1.16759C23.2196 1.07654 23.1884 0.976589 23.1775 0.87347C23.1665 0.770352 23.1761 0.66609 23.2055 0.566651C23.329 0.148286 23.7689 -0.0909998 24.1873 0.0325027ZM29.7048 2.98421C30.5292 3.22813 30.9985 4.09265 30.7561 4.91703C30.5122 5.74141 29.6477 6.21226 28.8233 5.96834C27.9989 5.72442 27.5281 4.85836 27.772 4.03553C28.0159 3.21115 28.8804 2.74029 29.7048 2.98421ZM35.9926 6.61519C36.8046 5.98378 37.8714 6.67694 37.9223 8.19447L39.2068 31.203L38.5769 31.3666L35.4121 9.11302C35.2778 8.17595 35.0972 7.30989 35.9926 6.61519ZM25.8839 9.47736C30.2436 13.7397 33.8622 20.1758 35.3581 29.971C32.5561 20.6512 28.6087 15.0242 24.5115 11.705C22.4166 10.0084 24.3865 8.01385 25.8839 9.47736ZM48.8477 9.15316C44.7103 14.0238 41.7818 20.8874 41.4638 30.6164L42.0087 30.4743C43.5942 21.1144 46.5088 14.8559 50.3745 11.316C52.684 9.20102 50.4239 7.29754 48.8477 9.15316ZM22.2715 18.0994C26.4412 21.2996 30.0027 25.3814 32.5361 29.8043L30.2235 29.2053C27.4941 25.7612 24.4714 22.9083 21.0704 20.9168C17.9412 19.0889 20.033 16.3858 22.2715 18.0994Z" fill="white"/>
</svg>
