<svg width="80" height="79" viewBox="0 0 80 79" fill="none" xmlns="http://www.w3.org/2000/svg">
<path fill-rule="evenodd" clip-rule="evenodd" d="M73.377 6.39702C69.1145 2.13448 63.5276 0 57.9342 0C52.3472 0 46.7603 2.13448 42.4978 6.39702C41.3984 7.4964 40.4404 8.6858 39.6239 9.93948C40.0675 16.0536 44.568 22.8428 50.4442 28.4362C56.5133 34.2031 63.9712 38.6264 69.9889 39.7194C70.1174 39.7451 70.246 39.7644 70.3746 39.7837C71.429 39.0507 72.4319 38.2149 73.3706 37.2763C77.6331 33.0137 79.7676 27.4268 79.7676 21.8399C79.7676 16.2465 77.6396 10.6596 73.377 6.39702ZM3.97422 73.0546C3.01628 74.0832 2.27693 75.2533 1.72402 76.552C0.605343 79.1687 0.406039 79.5544 3.042 78.3393C4.41784 77.7029 5.68438 76.8928 6.80948 75.8898C8.01174 77.0085 9.14327 77.5871 10.4484 77.7543C11.7857 77.9279 13.1294 77.6321 14.8331 77.0471C20.3943 75.1312 39.5596 59.4569 51.4922 49.6974C54.5524 47.1965 57.1177 45.0941 58.95 43.6476C61.2323 43.5447 63.4954 43.0818 65.662 42.2653C59.8308 40.1244 53.4723 35.984 48.149 30.9243C43.2307 26.2503 39.1546 20.7598 37.1101 15.2693C36.5058 17.1852 36.1779 19.1589 36.1136 21.1455C34.8599 22.7271 33.0276 24.9902 30.8031 27.7418C21.0758 39.7579 4.08352 60.7363 2.74625 65.1724C2.2705 66.754 2.0069 68.072 2.15477 69.3642C2.30907 70.6886 2.85555 71.8652 3.97422 73.0546ZM53.9417 43.3004C52.6044 44.3869 51.0421 45.6663 49.332 47.0615C37.5859 56.6666 18.7291 72.0966 13.7208 73.8196C12.48 74.244 11.5799 74.469 10.8791 74.379C10.2684 74.3018 9.6576 73.9289 8.89253 73.1639L6.61661 70.8879C5.92869 70.2 5.60723 69.6021 5.53651 68.9849C5.45293 68.2456 5.65224 67.3262 6.00584 66.1561C7.15023 62.3629 23.8661 41.7188 33.4391 29.8956C34.577 28.4876 35.6186 27.2018 36.5186 26.096C37.3287 30.1913 39.3218 34.1003 42.4978 37.2763C45.7381 40.5166 49.7499 42.5225 53.9417 43.3004Z" fill="white"/>
</svg>
