<svg width="90" height="79" viewBox="0 0 90 79" fill="none" xmlns="http://www.w3.org/2000/svg">
<path fill-rule="evenodd" clip-rule="evenodd" d="M82.8256 53.1661V66.0176H6.70576V53.6752C9.45498 54.7734 12.1606 55.0716 14.7352 54.6061C17.8699 54.0389 20.7355 52.3588 23.2156 49.6314C26.5176 53.1297 30.0087 54.8171 33.6816 54.7807C37.3981 54.7371 41.1219 52.897 44.8239 49.3332C48.8241 53.1734 52.7006 54.8825 56.4462 54.6789C59.9955 54.4898 63.2611 52.6133 66.2721 49.2532C69.4359 53.1224 72.9706 54.9189 76.8254 54.8243C78.7891 54.7589 80.7892 54.1989 82.8256 53.1661ZM1.20006 70.9705H88.1713C88.8332 70.9705 89.3714 71.5087 89.3714 72.1706V77.7999C89.3714 78.4545 88.8332 79 88.1713 79H1.20006C0.54548 79 0 78.4618 0 77.7999V72.1706C0 71.5087 0.538207 70.9705 1.20006 70.9705ZM39.3618 29.6159V18.4663C39.3618 17.3244 40.3 16.3935 41.4346 16.3935H47.944C49.0859 16.3935 50.0168 17.3317 50.0168 18.4663V29.6159H39.3618ZM44.693 0C45.813 4.98205 49.195 7.47671 49.195 9.97864C49.195 12.4733 48.0749 14.9607 44.693 14.9607C41.3255 14.9607 40.1909 12.466 40.1909 9.97864C40.1909 7.49125 43.5584 4.99659 44.693 0ZM13.3606 33.0124H76.0762C80.0546 33.0124 83.3057 36.2708 83.3057 40.2419V45.733C80.5637 48.0095 78.0327 49.2241 75.7198 49.2895C72.8397 49.3623 70.0905 47.5149 67.4867 43.4929C67.3413 43.282 67.174 43.0856 66.9485 42.9256C65.9885 42.2274 64.6502 42.4383 63.9593 43.3984C61.3337 46.9985 58.6354 49.0059 55.8644 49.1586C53.057 49.3114 49.9223 47.5949 46.4094 43.7475C46.3585 43.7038 46.3149 43.6529 46.2712 43.6093C45.3912 42.8092 44.0384 42.8747 43.2384 43.7475C39.9509 47.3549 36.8671 49.2314 34.0088 49.2605C31.216 49.2895 28.394 47.5295 25.5575 43.8711C25.4339 43.7038 25.2739 43.5584 25.0921 43.4275C24.1247 42.7438 22.7792 42.9765 22.1028 43.9438C20.0082 46.9185 17.5644 48.6786 14.9389 49.1514C13.1352 49.4714 11.2005 49.1659 9.13497 48.315C4.86568 46.5694 6.41484 45.573 6.13119 40.2491C5.913 36.278 9.38225 33.0124 13.3606 33.0124ZM83.3057 51.0205V51.2533H82.9274C83.0511 51.1878 83.1747 51.1078 83.3057 51.0205Z" fill="white"/>
</svg>
