<svg width="92" height="79" viewBox="0 0 92 79" fill="none" xmlns="http://www.w3.org/2000/svg">
<path fill-rule="evenodd" clip-rule="evenodd" d="M24.4068 0H68.474C69.2123 -2.59711e-06 69.9204 0.29276 70.4431 0.814089C70.9658 1.33542 71.2605 2.04276 71.2624 2.78101V76.2264C71.2566 76.9615 70.9615 77.6647 70.441 78.1838C69.9205 78.7029 69.2165 78.9961 68.4814 79H24.4068C23.6711 78.9981 22.966 78.7054 22.4451 78.1859C21.9242 77.6664 21.6297 76.9621 21.6258 76.2264V2.78101C21.6277 2.04404 21.9214 1.33781 22.4425 0.816696C22.9636 0.295578 23.6698 0.00195225 24.4068 0ZM12.4618 44.2373C12.6766 43.7165 13.0895 43.3024 13.6096 43.086C14.1298 42.8696 14.7146 42.8687 15.2354 43.0835C15.7562 43.2983 16.1703 43.7112 16.3867 44.2314C16.6031 44.7515 16.604 45.3363 16.3892 45.8571C15.4396 48.3184 14.9507 50.9334 14.9469 53.5715C14.8602 56.1318 15.2644 58.6851 16.1377 61.0935C16.2604 61.3552 16.3283 61.6392 16.3373 61.9281C16.3463 62.217 16.2962 62.5046 16.1901 62.7735C16.084 63.0423 15.9241 63.2866 15.7203 63.4915C15.5164 63.6964 15.2729 63.8575 15.0046 63.9649C14.7362 64.0723 14.4488 64.1238 14.1599 64.1162C13.871 64.1087 13.5867 64.0422 13.3244 63.9208C13.0621 63.7995 12.8273 63.6259 12.6345 63.4106C12.4416 63.1953 12.2948 62.943 12.2029 62.6689C11.1223 59.7463 10.6199 56.6414 10.7236 53.5271C10.7312 50.3504 11.3203 47.2019 12.4618 44.2373ZM4.00778 40.4504C4.12919 40.1993 4.29887 39.9746 4.50712 39.7891C4.71538 39.6036 4.95813 39.461 5.22152 39.3693C5.48492 39.2776 5.76379 39.2387 6.04222 39.2548C6.32065 39.2708 6.59318 39.3416 6.84427 39.463C7.09535 39.5844 7.32005 39.7541 7.50556 39.9624C7.69107 40.1706 7.83374 40.4134 7.92542 40.6768C8.01711 40.9402 8.05603 41.219 8.03994 41.4975C8.02385 41.7759 7.95308 42.0484 7.83167 42.2995C6.14225 45.8995 5.25639 49.8241 5.23557 53.8008C5.16607 57.5372 5.99556 61.2357 7.65416 64.5846C7.78432 64.8347 7.86393 65.108 7.88847 65.3889C7.913 65.6697 7.88197 65.9527 7.79715 66.2216C7.71233 66.4905 7.57538 66.74 7.39411 66.956C7.21285 67.1719 6.99083 67.3501 6.74072 67.4802C6.49061 67.6104 6.21731 67.69 5.93643 67.7146C5.65556 67.7391 5.37259 67.7081 5.10371 67.6232C4.83482 67.5384 4.58527 67.4015 4.36932 67.2202C4.15336 67.0389 3.97521 66.8169 3.84506 66.5668C1.87444 62.5975 0.897246 58.209 0.997481 53.7786C1.02085 49.1747 2.04817 44.6313 4.00778 40.4652V40.4504ZM76.4916 45.8645C76.2759 45.3437 76.2758 44.7585 76.4915 44.2377C76.7072 43.7168 77.121 43.303 77.6418 43.0872C78.1626 42.8714 78.7478 42.8714 79.2686 43.0871C79.7895 43.3028 80.2033 43.7165 80.4191 44.2373C81.5656 47.201 82.1597 50.3495 82.172 53.5271C82.2757 56.6414 81.7733 59.7463 80.6927 62.6689C80.6009 62.943 80.454 63.1953 80.2612 63.4106C80.0683 63.6259 79.8336 63.7995 79.5713 63.9208C79.309 64.0422 79.0246 64.1087 78.7357 64.1162C78.4468 64.1238 78.1594 64.0723 77.8911 63.9649C77.6228 63.8575 77.3792 63.6964 77.1754 63.4915C76.9715 63.2866 76.8116 63.0423 76.7055 62.7735C76.5995 62.5046 76.5494 62.217 76.5584 61.9281C76.5674 61.6392 76.6353 61.3552 76.7579 61.0935C77.6202 58.6855 78.0143 56.1349 77.9191 53.5789C77.9036 50.9384 77.4021 48.3234 76.4399 45.8645H76.4916ZM85.0492 42.2995C84.9278 42.0484 84.857 41.7759 84.8409 41.4975C84.8248 41.219 84.8637 40.9402 84.9554 40.6768C85.0471 40.4134 85.1898 40.1706 85.3753 39.9624C85.5608 39.7541 85.7855 39.5844 86.0366 39.463C86.2877 39.3416 86.5602 39.2708 86.8386 39.2548C87.1171 39.2387 87.3959 39.2776 87.6593 39.3693C87.9227 39.461 88.1655 39.6036 88.3737 39.7891C88.582 39.9746 88.7516 40.1993 88.8731 40.4504C90.8324 44.6166 91.8597 49.1599 91.8834 53.7638C91.9767 58.2008 90.992 62.5942 89.0136 66.5668C88.8901 66.8217 88.7169 67.0493 88.5041 67.2363C88.2913 67.4232 88.0432 67.5657 87.7745 67.6552C87.5058 67.7448 87.2219 67.7797 86.9395 67.7579C86.6571 67.7361 86.382 67.6579 86.1302 67.5281C85.8785 67.3983 85.6553 67.2194 85.4737 67.002C85.2922 66.7846 85.156 66.533 85.0732 66.2622C84.9904 65.9913 84.9626 65.7066 84.9915 65.4249C85.0204 65.1431 85.1054 64.87 85.2415 64.6216C86.8906 61.2707 87.7076 57.5715 87.6231 53.8377C87.6023 49.8611 86.7164 45.9365 85.027 42.3365L85.0492 42.2995ZM46.4404 7.8253C48.7132 7.82346 50.9163 8.60983 52.6742 10.0504C54.4321 11.491 55.636 13.4966 56.0808 15.7254C56.5255 17.9542 56.1836 20.2683 55.1133 22.2733C54.043 24.2782 52.3105 25.85 50.2111 26.7206C48.1117 27.5913 45.7753 27.7069 43.6002 27.0479C41.4251 26.3889 39.5458 24.9959 38.2827 23.1065C37.0196 21.217 36.4508 18.948 36.6732 16.6862C36.8957 14.4243 37.8957 12.3096 39.5027 10.7025C40.4126 9.7896 41.4939 9.0655 42.6845 8.57175C43.8751 8.078 45.1515 7.82433 46.4404 7.8253ZM46.4404 35.9757C50.4894 35.9739 54.4137 37.3762 57.5445 39.9437C60.6754 42.5111 62.8191 46.0848 63.6103 50.0557C64.4016 54.0266 63.7913 58.149 61.8836 61.7204C59.976 65.2918 56.8889 68.0911 53.1485 69.6414C49.4081 71.1917 45.2458 71.397 41.371 70.2223C37.4962 69.0476 34.1486 66.5656 31.8987 63.1993C29.6488 59.833 28.6359 55.7906 29.0325 51.7611C29.4291 47.7317 31.2108 43.9644 34.0738 41.1013C35.6957 39.4742 37.6232 38.1838 39.7455 37.3041C41.8678 36.4245 44.143 35.973 46.4404 35.9757ZM56.4698 43.4163C54.1441 41.0909 51.084 39.6437 47.811 39.3215C44.5379 38.9993 41.2544 39.8219 38.5198 41.6493C35.7853 43.4766 33.769 46.1956 32.8144 49.3429C31.8599 52.4902 32.0262 55.8711 33.2849 58.9096C34.5437 61.9481 36.8171 64.4561 39.7177 66.0063C42.6183 67.5565 45.9667 68.053 49.1924 67.4112C52.418 66.7694 55.3214 65.029 57.4077 62.4865C59.494 59.944 60.6341 56.7568 60.6339 53.4679C60.6367 51.6007 60.2701 49.7514 59.5555 48.0264C58.8409 46.3013 57.7922 44.7346 56.4698 43.4163ZM46.4404 48.2239C47.4776 48.2239 48.4915 48.5315 49.3538 49.1077C50.2162 49.6839 50.8883 50.5029 51.2852 51.4611C51.6821 52.4194 51.786 53.4737 51.5836 54.491C51.3813 55.5082 50.8819 56.4426 50.1485 57.176C49.4151 57.9094 48.4807 58.4088 47.4635 58.6112C46.4462 58.8135 45.3918 58.7097 44.4336 58.3127C43.4754 57.9158 42.6564 57.2437 42.0802 56.3813C41.504 55.519 41.1964 54.5051 41.1964 53.4679C41.1964 52.0771 41.7489 50.7433 42.7324 49.7599C43.7158 48.7764 45.0496 48.2239 46.4404 48.2239ZM46.4404 14.5559C47.0504 14.5559 47.6467 14.7368 48.1539 15.0757C48.6612 15.4146 49.0565 15.8963 49.2899 16.4599C49.5233 17.0235 49.5844 17.6436 49.4654 18.2419C49.3464 18.8402 49.0527 19.3898 48.6213 19.8211C48.19 20.2524 47.6404 20.5462 47.0421 20.6652C46.4438 20.7842 45.8237 20.7231 45.2601 20.4897C44.6966 20.2562 44.2149 19.8609 43.8759 19.3537C43.537 18.8465 43.3562 18.2502 43.3562 17.6402C43.3562 16.8222 43.6811 16.0377 44.2595 15.4593C44.8379 14.8809 45.6224 14.5559 46.4404 14.5559ZM51.6178 12.4332C50.4093 11.2182 48.8164 10.4606 47.1113 10.2898C45.4061 10.1189 43.6946 10.5455 42.269 11.4966C40.8435 12.4477 39.7925 13.8643 39.2955 15.5043C38.7985 17.1443 38.8865 18.906 39.5443 20.4884C40.2021 22.0708 41.389 23.3757 42.9021 24.1801C44.4153 24.9845 46.1608 25.2385 47.8405 24.8987C49.5201 24.5589 51.0297 23.6464 52.1112 22.3171C53.1927 20.9879 53.7791 19.3243 53.7702 17.6106C53.7664 15.6679 52.9924 13.806 51.6178 12.4332Z" fill="white"/>
</svg>
