<svg width="134" height="79" viewBox="0 0 134 79" fill="none" xmlns="http://www.w3.org/2000/svg">
<path fill-rule="evenodd" clip-rule="evenodd" d="M113.42 63.4815L112.837 41.9292L77.42 52.1609C74.2286 52.8617 71.0804 53.196 67.9969 53.2067C64.687 53.2175 61.431 52.8617 58.2288 52.1609L24.3964 41.8214V63.6756C25.3667 75.0286 57.9377 78.5002 67.9322 78.9746C75.9429 79.3628 107.587 75.1795 111.748 68.6567C112.643 67.2335 113.204 65.5085 113.42 63.4815ZM127.77 26.4146V52.7539H128.6C129.171 52.7539 129.635 53.2175 129.635 53.7889V60.8724C129.635 61.4331 129.171 61.9074 128.6 61.9074H127.77V64.3872C128.826 64.5813 129.635 65.5193 129.635 66.6298C129.635 67.8804 128.6 68.9154 127.349 68.9154H123.263C122.012 68.9154 120.977 67.8912 120.977 66.6298C120.977 65.5193 121.786 64.5813 122.843 64.3872V61.9074H122.012C121.452 61.9074 120.977 61.4438 120.977 60.8724V53.7889C120.977 53.2175 121.441 52.7539 122.012 52.7539H122.843V27.9564L79.738 41.347C71.9322 43.2015 64.1263 43.3308 56.3205 41.347L8.74157 27.1478L4.43974 25.8648C-0.918686 23.6761 0.418225 18.5333 5.41008 17.3473L59.2207 1.28285C64.7732 -0.302037 70.3149 -0.550012 75.8674 1.28285L128.708 17.1533C134.454 18.5549 135.586 23.8702 128.902 26.0588L127.77 26.4146Z" fill="white"/>
</svg>
